<svg xmlns="http://www.w3.org/2000/svg" version="1.1" xmlns:xlink="http://www.w3.org/1999/xlink" xmlns:svgjs="http://svgjs.dev/svgjs" width="100%" height="100%" viewBox="0 0 1000 600"><rect width="1000" height="600" x="0" y="0" fill="#261d44"/><g><rect width="333.3333333333333" height="333.3333333333333" y="180.68412721222637" fill="#372963" transform="matrix(0.7888331829662875,0,0,0.7888331829662876,0,25.99817058452217)" x="158.46192932128906"/><path d="M303.2542115011358 406.175765188322L229.88050373080068 406.175765188322L229.88050373080068 272.35079578451996L210.83381441342135 272.35079578451996L210.83381441342135 422.3507998086195L303.2542115011358 422.3507998086195L303.2542115011358 406.175765188322ZM354.24073367381277 371.6573036254407L370.9139124762571 352.6985221049108L416.2450330516199 422.3507998086195L439.42338882092304 422.3507998086195L383.48472742572744 337.98861743210404L435.9363795458951 272.35079578451996L412.758023776592 272.35079578451996L368.77482275292067 327.4689844091207L354.24073367381277 345.60729315905576L354.24073367381277 272.35079578451996L334.75450537218626 272.35079578451996L334.75450537218626 422.3507998086195L354.24073367381277 422.3507998086195L354.24073367381277 371.6573036254407Z " fill="#ff567f " transform="matrix(0.7888331829662875,0,0,0.7888331829662876,0,25.99817058452217)"/><path d="M643.33794094893 377.1950857287568L589.185692290509 377.1950857287568L589.185692290509 278.42778555982335L575.1285989886026 278.42778555982335L575.1285989886026 389.1328018866835L643.33794094893 389.1328018866835L643.33794094893 377.1950857287568ZM711.006625474569 272.35079599392225L668.9434770557873 272.35079599392225L668.9434770557873 284.5912803152746L696.9279058752751 284.5912803152746L696.9279058752751 376.95719645749375L668.9434770557873 376.95719645749375L668.9434770557873 389.1328018866835L737.8448605325165 389.1328018866835L737.8448605325165 376.95719645749375L711.006625474569 376.95719645749375L711.006625474569 272.35079599392225ZM756.2272133119326 347.2426638470023L756.2272133119326 347.2426638470023L756.2272133119326 348.9078887458435Q756.2272133119326 357.8179232695134 758.8223689984385 365.40875365254294Q761.3958983875567 373.02121033296 766.2618152997551 378.6440476537225L766.2618152997551 378.6440476537225Q771.0628533197909 384.2668849744851 778.0265210785814 387.4675769878423Q784.9685625399844 390.6466427038119 793.7272129819415 390.6466427038119L793.7272129819415 390.6466427038119Q802.3777319369609 390.6466427038119 809.2981471009763 387.4675769878423Q816.2185622649919 384.2668849744851 821.0844791771902 378.6440476537225L821.0844791771902 378.6440476537225Q825.885517197226 373.02121033296 828.4590465863442 365.40875365254294Q831.0542022728501 357.8179232695134 831.0542022728501 348.9078887458435L831.0542022728501 348.9078887458435L831.0542022728501 347.2426638470023Q831.0542022728501 338.35425562071987 828.4590465863442 330.6985463455278Q825.885517197226 323.0644633677232 821.0844791771902 317.4416260469606L821.0844791771902 317.4416260469606Q816.2185622649919 311.818788726198 809.2548945062014 308.5748441180658Q802.3128530447983 305.35252580732106 793.5542026028412 305.35252580732106L793.5542026028412 305.35252580732106Q784.9036836478218 305.35252580732106 777.9832684838062 308.5748441180658Q771.0628533197909 311.818788726198 766.2618152997551 317.4416260469606L766.2618152997551 317.4416260469606Q761.3958983875567 323.0644633677232 758.8223689984385 330.6985463455278Q756.2272133119326 338.35425562071987 756.2272133119326 347.2426638470023ZM770.3059329112267 348.9078887458435L770.3059329112267 348.9078887458435L770.3059329112267 347.2426638470023Q770.3059329112267 341.23055317326384 771.7548948361924 335.715847339439Q773.1822304637707 330.20114150561415 776.1450332058647 326.02726610981733L776.1450332058647 326.02726610981733Q779.0429570557961 321.85339071402046 783.3682165333058 319.3663665144524Q787.7151023082032 316.9009686122719 793.5542026028412 316.9009686122719L793.5542026028412 316.9009686122719Q799.4149291948667 316.9009686122719 803.7834412671515 319.3663665144524Q808.1519533394363 321.85339071402046 811.136382378918 326.02726610981733L811.136382378918 326.02726610981733Q814.012679931462 330.20114150561415 815.5048944512029 335.715847339439Q816.975482673556 341.23055317326384 816.975482673556 347.2426638470023L816.975482673556 347.2426638470023L816.975482673556 348.9078887458435Q816.975482673556 354.98487831174464 815.5481470459778 360.49958414556943Q814.099185121012 366.0142899793943 811.2012612710806 370.20979167257866L811.2012612710806 370.20979167257866Q808.2384585289866 374.38366706837553 803.8699464567018 376.80581237578093Q799.5014343844169 379.2495839805739 793.7272129819415 379.2495839805739L793.7272129819415 379.2495839805739Q787.8664863899158 379.2495839805739 783.4547217228561 376.80581237578093Q779.0429570557961 374.38366706837553 776.1450332058647 370.20979167257866L776.1450332058647 370.20979167257866Q773.1822304637707 366.0142899793943 771.7548948361924 360.49958414556943Q770.3059329112267 354.98487831174464 770.3059329112267 348.9078887458435ZM860.2497037460404 422.3507946739578L860.2497037460404 422.3507946739578Q865.7860358772529 422.3507946739578 870.0464164625997 420.2962964221407Q874.3067970479468 418.24179817032365 877.507489061304 415.21411653606685L877.507489061304 415.21411653606685Q880.6865547772735 412.16480860442255 882.9356897055785 408.596469535477Q885.1848246338837 405.0281304665316 886.6337865588495 401.8274384531744L886.6337865588495 401.8274384531744L928.3725405168178 306.8663666244495L912.6285960186825 306.8663666244495L891.4131982814976 360.2400685769189L887.5420910491265 369.90702350915296L883.8872467906307 359.9373004134932L861.3093923180303 306.8663666244495L845.565447819895 306.8663666244495L880.9893229406993 385.26169465431235L875.3664856199367 396.2046011324118Q874.6095652113726 397.7184419495402 873.290361070732 400.075708364783Q871.9495306327041 402.43297478002575 870.13292165215 404.6388571135557L870.13292165215 404.6388571135557Q868.2298074820457 406.84473944708566 865.8292884720278 408.4450854537642Q863.4287694620101 410.0454314604428 860.5524719094661 410.0454314604428L860.5524719094661 410.0454314604428Q859.4927833374762 410.0454314604428 857.6112954647596 409.93729997350505Q855.7514338894304 409.80754218917974 853.848319719326 409.6561581074669L853.848319719326 409.6561581074669L851.5775584936335 421.13972202025514Q852.940015229049 421.4424901836808 855.6000498077175 421.8966424288193Q858.260084386386 422.3507946739578 860.2497037460404 422.3507946739578ZM961.3526440328291 360.6942208220574L971.7116404814648 350.7461240237851L1001.8803253370946 389.1328018866835L1019.7436469792098 389.1328018866835L981.3569691163112 341.1656742811012L1014.6614670931357 306.8663666244495L997.5550658595849 306.8663666244495L970.5654467199246 333.94249095366L961.3526440328291 343.82570885976963L961.3526440328291 272.35079599392225L947.23067183876 272.35079599392225L947.23067183876 389.1328018866835L961.3526440328291 389.1328018866835L961.3526440328291 360.6942208220574ZM1094.570635940127 389.1328018866835L1094.570635940127 389.1328018866835L1109.2332655688847 389.1328018866835L1109.2332655688847 387.9217292329808Q1107.8708088334693 384.50477424574814 1107.1138884249049 379.8983729022003Q1106.356968016341 375.29197155865256 1106.356968016341 371.18297505501835L1106.356968016341 371.18297505501835L1106.356968016341 332.9476812738328Q1106.356968016341 326.02726610981733 1103.848317519385 320.85858103419326Q1101.3396670224297 315.6898959585692 1096.9927812475325 312.1864357817864L1096.9927812475325 312.1864357817864Q1092.5810165804728 308.7694807945537 1086.5905322041217 307.0610033009374Q1080.5784215303834 305.35252580732106 1073.5931274742052 305.35252580732106L1073.5931274742052 305.35252580732106Q1065.894165604238 305.35252580732106 1059.860428633112 307.4719029513008Q1053.8050653645982 309.6129063926681 1049.6311899688017 313.02986137990075L1049.6311899688017 313.02986137990075Q1045.3708093834543 316.5333215566836 1043.143300752537 320.85858103419326Q1040.894165824232 325.18384051170295 1040.8076606346817 329.68211036831303L1040.8076606346817 329.68211036831303L1054.9512591261387 329.68211036831303Q1054.9512591261387 327.0869546818072 1056.2055843746161 324.70806196917687Q1057.459909623094 322.307542959159 1059.752297146174 320.55581287076757L1059.752297146174 320.55581287076757Q1062.0230583718667 318.80408278237616 1065.3318818721618 317.7443942103863Q1068.6407053724565 316.6847056383964 1072.8145807682536 316.6847056383964L1072.8145807682536 316.6847056383964Q1077.3128506248636 316.6847056383964 1080.924442288584 317.80927310254896Q1084.5360339523045 318.955466864089 1087.0446844492603 321.0099651159061L1087.0446844492603 321.0099651159061Q1089.5533349462157 323.12934225988585 1090.9157916816312 326.1137712993675Q1092.278248417047 329.07657404146164 1092.278248417047 332.79629719211994L1092.278248417047 332.79629719211994L1092.278248417047 339.2625601109969L1076.9235772718876 339.2625601109969Q1068.3379372090308 339.2625601109969 1061.3742694502403 340.92778500983815Q1054.4322279888374 342.5930099086794 1049.4798058870888 345.9450860037494L1049.4798058870888 345.9450860037494Q1044.5490100827278 349.362040990982 1041.8457229092842 354.4658471744434Q1039.1424357358405 359.5480270605173 1039.1424357358405 366.31705814282L1039.1424357358405 366.31705814282Q1039.1424357358405 371.48574321844404 1041.1536813928824 375.940760480279Q1043.1649270499247 380.395777742114 1046.9062764979703 383.5748434580836L1046.9062764979703 383.5748434580836Q1050.5394944590785 386.86204066099094 1055.8379373190278 388.7435285337076Q1061.1147538815899 390.6466427038119 1067.6458956926294 390.6466427038119L1067.6458956926294 390.6466427038119Q1071.6900133041008 390.6466427038119 1075.2583523730464 389.824843403085Q1078.826691441992 388.98141780497065 1082.027383455349 387.53245588000493L1082.027383455349 387.53245588000493Q1085.141570279156 386.0834939550392 1087.7583522630493 384.1803797849349Q1090.3751342469427 382.2988919122182 1092.5161376883098 380.15788847085093L1092.5161376883098 380.15788847085093Q1092.7324006621852 382.7530441573567 1093.2298055020992 385.13193686998704Q1093.7272103420128 387.53245588000493 1094.570635940127 389.1328018866835ZM1069.7003939444467 378.40615838245947L1069.7003939444467 378.40615838245947Q1065.5913974408122 378.40615838245947 1062.4772106170053 377.3464698104696Q1059.3630237931984 376.28678123847976 1057.3085255413812 374.38366706837553L1057.3085255413812 374.38366706837553Q1055.254027289564 372.56705808782147 1054.2375913123492 369.9719024013156Q1053.1995290377472 367.3983730121974 1053.1995290377472 364.34906508055303L1053.1995290377472 364.34906508055303Q1053.1995290377472 361.1483730671959 1054.388975394062 358.6397225702403Q1055.5567954529897 356.13107207328466 1057.84918297607 354.3144630927306L1057.84918297607 354.3144630927306Q1061.0282486920396 351.7193074062248 1066.4780756337018 350.464982157747Q1071.9062762779763 349.2106569092692 1079.215964794968 349.2106569092692L1079.215964794968 349.2106569092692L1092.278248417047 349.2106569092692L1092.278248417047 365.86290589768146Q1091.067175763344 368.3066775024744 1088.9477986193647 370.53418613339187Q1086.8067951779972 372.78332106169694 1083.930497625453 374.53505115008835L1083.930497625453 374.53505115008835Q1080.967694883359 376.28678123847976 1077.3777295170262 377.3464698104696Q1073.8093904480806 378.40615838245947 1069.7003939444467 378.40615838245947Z " fill="#01ff9c" transform="matrix(0.7888331829662875,0,0,0.7888331829662876,0,25.99817058452217)"/></g></svg>